<svg xmlns="http://www.w3.org/2000/svg" xmlns:xlink="http://www.w3.org/1999/xlink" width="920pt" height="920pt" viewBox="0 0 920 920"><defs><path id="a" d="M491.07 18.92c1.53.88 3.14 1.34 3.95 3.04 1.68 3.09 3.48 6.62 3.89 10.14.29 1.81.08 3.45 1.3 4.96 5.36-.75 10.52-3.25 15.87-4.02 4.56-.13 9.3-.13 13.86 0 6.04.99 11.57 3.75 15.7 8.31 2.55 3.12 3.73 6.6 4.59 10.48.63 3.06 3.48 3.18 5.95 3.97 7.81 1.82 15.55 4.05 23.42 5.57 3.22.64 6.25 1.87 9.41 2.67 6.57-5.15 12.95-12.13 20.63-15.43 4.69-2.25 10.07-3.93 15.32-3.66 2.98.04 5.98-.08 8.96.1 6.39.98 12.51 3.36 17.56 7.46 4.52 3.09 7.26 7.27 10.36 11.66 4.16 6.2 6.05 13.32 7.5 20.55 1.21 4.91.54 10.28.68 15.31.23 3.78-2.33 6.22.32 9.6 3.93 3.5 8.6 5.94 12.55 9.47 8.6 6.34 16.63 13.35 24.85 20.16 3.87 4.24 8.7 7.2 12.54 11.46 5.2 5.44 10.87 10.5 15.85 16.13 2.72 3.96 6.54 6.82 9.34 10.69 6.66 7.75 12.82 15.93 18.76 24.25 7.07 9.46 12.99 19.77 19.08 29.89 2.73 5.93 6.6 11.1 8.76 17.29 3.49 6.82 6.23 13.95 8.86 21.14 8.03 20.43 12.41 42.01 14.11 63.84-.05 6.7-.05 13.4 0 20.1.15 3.4-1.11 6.54-1 9.94.02 8.46-2.92 16.77-3.04 25.17 6.04-3.05 9.87-9.88 15.55-13.6 4.95-3.41 10.64-5.61 16.57-6.56 6.93-.35 14.13 2.07 19.73 6.13 4.88 2.74 7.02 8.03 10.37 12.65 4.74 8.44 6.68 18.73 7.77 28.24.91 16.85-3.63 34.29-10.24 49.71-8.1 20.24-20.79 36.76-34.97 53.04-4.9 4.77-9.61 9.73-14.55 14.46-4.66 3.72-8.96 7.76-14.01 10.99-7.32 4.75-14.29 9.82-21.89 14.1-10.7 5.6-21.3 10.66-32.92 14.15-1.95.54-3.53 1.62-4.4 3.5-2.27 5.04-3.16 10.69-5.08 15.92-6.34 18.18-13.06 35.97-21.92 53.11-3.26 6.43-6.37 12.94-9.7 19.32-4.74 7.93-8.96 16.23-14.08 23.9-7.49 12.31-14.99 24.82-23.64 36.37-10.05 13.78-20.09 27.83-31.34 40.66-3.13 2.94-5.33 6.61-8.46 9.53-4.73 4.61-9.31 9.37-14.04 13.97-7.18 6.02-14.74 12.48-22.92 17.1-9.34 6.25-18.94 11.56-30 14.03-5.93 1.89-11.45.92-17.87 1.15-10.91-.69-18.97-5.88-28.12-11.15-2.96 1.85-4.06 6.18-5.88 9.09-5.22 8.53-11.4 16.53-17.73 24.26-3.9 4.1-8.04 7.97-11.95 12.06-3.36 3.62-7.34 5.68-11.45 8.55-2.78 1.94-6.01 2.85-9.24 3.86-3.44 1.09-7.23-.4-10.27-2.01-1.84-1.52-2.98-3.85-4.62-5.61-3.16 1.43-4.93 3.93-7.67 5.94-5.98 4.55-12.21 8.75-18.96 12.08-5.66 3.84-12.09 5.65-18.07 8.89-10.79 4.51-22.08 8.28-33.57 10.49-5.69 1.41-11.43 2.49-17.29 2.76-5.09 1.14-10.17.43-15.25 1.67-7.57.19-15.21.15-22.78.02-3.99-.94-10.45-.6-12.99-4.24-.3-2.37-.29-5 .01-7.37 2.74-2.68 6.23-4.53 9.06-7.13 3.39-3.34 7.35-5.91 10.56-9.44 2.14-2.42 5.63-4.73 6.55-7.9-6 .65-10 3.92-15.41 6.06-12 4.91-25.09 7.45-37.91 9.08-10.31.02-20.65.03-30.96 0-10.78-1.51-21.18-2.15-31.28-6.73-4.47-3.55-3.79-12.48 1.88-14.62 9.8-4.84 20.01-9.76 28.97-16.07 5.46-4.55 10.35-9.66 12.6-16.56-1.63-.03-3.35-.06-4.96.24-9.78 2.5-20.04 3.8-30.11 3.93-7.12 1.71-13.82.27-20.99.99-9.78 2.16-20.42-.49-30.24 1.74-4.36.39-9.18-.34-13.46.55-3.87.89-7.83.31-11.71 1.28-13.13 1.88-25.67 5.98-37.85 11.14-8.1 2.87-15.5 7.06-23.21 10.79-4.3 2.1-8.21 5.16-12.25 7.74-6.41 4.13-12.49 8.8-18.4 13.61-3.08 2.36-6.43 5.72-10.16 6.94-3.14.22-7.46.6-9.57-2.27-1.69-3.83-1.75-7.95-.56-11.93 2.9-12.78 8.7-25.23 13.68-37.36 8.44-18.19 18.22-35.62 30.46-51.54 7.16-8.67 13.59-18.5 21.88-26.12 5.04-4.96 10-10.01 14.99-15.01 15.43-13.11 30.43-25.37 48.93-34.07 7.93-3.73 15.59-8.47 23.91-11.14 12.8-5.18 26.42-8.46 40.15-9.88 4.38-.76 9.77-1.63 13.7.96 2.4.96 3.94 3.74 3.58 6.27-.73 4.87-2.32 9.59-3.09 14.45 2.33-.7 3.66-2.44 5.35-4.06 2.59-2.73 5.44-5.25 7.85-8.13 4.62-5.88 9.31-11.45 13.11-17.93 3.53-5.02 5.79-10.7 9-15.93 2.85-6.76 5.6-13.92 6.82-21.16-.96-2.04-3.1-3.78-4.88-5.13-4.38 1.88-8.5 4.61-13 6.19-18.31 5.46-38.04 5.33-56.03-1.28-8.85-3-16.9-7.89-22.76-15.26-3.94-5.21-5.59-11.22-6.26-17.63.88-6.83 1.76-12.87 7.23-17.64 4.8-3.89 10.2-4.43 15.8-6.39-8.08-8.91-14.19-20.08-20.96-30.16-6.01-10.12-10.7-20.92-12.4-32.66-1.21-5.15-1.07-10.14-.03-15.3 1.16-16.75 10.88-32.62 26.22-39.9 6.28-3.46 12.99-4.92 19.66-7.35 1.11-.5 3.2-1.17 3.45-2.52-2.45-4.76-5.99-8.9-8.56-13.63-2.98-4.45-4.75-9.35-6.7-14.3-4.8-11.36-7.35-23.97-8.78-36.17 0-3.54-.23-6.63-.95-10.09-.29-6.28.01-12.6-.09-18.89.08-4.07-.42-8.49.53-12.43.78-3.56.26-6.9.56-10.46.87-5.59 1.54-11.24 2.13-16.86 2.9-15.92 6.93-31.56 12.12-46.89 3.69-10.68 6.76-21.43 11.21-31.79 3.8-9.96 8.1-19.68 12.68-29.29 3.13-8.45 8.69-15.9 12.54-24.01-2.89-3.45-6.58-5.28-10.08-7.95-4.82-3.35-8.75-7.98-12.95-12.07-8.72-11.5-13.36-25.83-12.79-40.28-.24-5.16 1.02-9.88 1.9-15.1 1.12-6.29 3.85-11.65 6.82-17.22 4.84-7.98 12.02-14.26 19.98-19 10.55-5.94 22.17-6.38 33.96-5.32 7.42.84 13.84 3.17 20.41 6.62 7.07 3.18 11.97 8.32 17.21 13.82 2.83 3.17 4.97 7.09 8 10.06 5.14-3.31 9.77-7.36 14.91-10.7 6.7-5.3 13.61-9.85 21.15-13.87 4.04-2.45 8.13-4.76 12.56-6.44 9.31-4 18.87-8.9 28.71-11.3 3.1-.91 6.21-1.77 9.3-2.67 5.85-1.65 11.99-2.39 17.78-4.21 2.06-1.45 3.43-3.99 5.14-5.87 1.89-2.1 3.94-4.06 5.93-6.06 11.5-10.16 22.18-19.71 36.89-25.12 5.9-1.49 14.04-3.19 19.47.33Zm-168.85 127.3c-1.77-4.01-2.64-8.17-4.18-12.27-3.26-8.88-8.56-17.17-14.46-24.52-5.7-6.73-12.31-13.1-20.66-16.35-9.24-3.57-19.01-5.18-28.78-2.82-6.54 1.44-11.78 5.33-16.18 10.24-3.49 3.59-6.25 7.74-7.97 12.46-2.31 6.46-4.56 13.11-4.52 20.04.31 11.01 4.12 21.78 11.48 30.05 5.53 6.1 12.59 10.95 20.42 13.58 3.81 1.31 7.2 3.34 10.6 5.47.43 3.68-.57 5.36-2.68 8.17-7.9 10.68-13.14 22-19.44 33.58-3.7 6.9-6.88 14.02-9.67 21.33-3.63 9.44-7.4 18.89-10.41 28.55-6.29 16.51-9.96 34.58-13.14 51.93-2.29 12.69-3.02 25.48-3.42 38.35-.39 21.42 2.42 42.53 10.21 62.57 2.71 6.86 6.28 13.31 11.14 18.89 7.33 8.41 14.74 16.74 24.41 22.55 5.75 3.35 11.75 6.9 16.81 11.25.99.77 1.3 2.19 1.83 3.3-6.64-3.27-13.55-5.85-20.81-7.35-12.24-2.57-25.51-3.81-37.84-1.2-8.01 1.66-15.89 5.35-21.18 11.77-4.77 5.88-7.88 13.14-8.95 20.63-2.32 10.1.77 19.08 4.35 28.4 3.01 7.63 7.19 14.56 11.46 21.53 5.95 10 14.04 18.52 20.88 28.13 2.97 4.31 6.86 8.58 8.74 13.5-.48 2.22-3.32 3.05-5.28 3.31-5.4-.04-10.47-2.72-15.97-2.81-3.96-.09-9.04.51-11.69 3.85-3.01 3.76-1.83 9.08.51 12.85 4.26 6.77 11.84 10.4 19.18 12.82 10.04 3.49 20.52 4.02 31.03 3.09 8.24-.62 16.36-3.31 23.37-7.68 9.66-6.43 15.73-16.67 18.12-27.92 2.25-9.64.91-19.31-2.08-28.62-3.18-9.73-8.48-17.75-14.25-26.07-1.26-2.19-3.47-4.73-2-7.34 5.59-.74 12.59.42 16.61 4.72 8.87 9.21 14.38 20.74 17.14 33.16 2.88 16.84-1.81 32.52-9.12 47.54-1.28 2.58-2.99 5.21-3.73 8 1.46 2.6 4.28 4.61 6.6 6.42 26.34 19.83 56.8 36.27 85.31 52.69 11.08 6.48 21.95 13.23 32.6 20.39 14.11 9.02 27.64 18.87 40.83 29.18 6.33 4.71 12.17 10.03 18.55 14.66 5.7 6.44 12.43 12.21 18.71 18.07 9.37 8.97 18.9 17.87 29.03 25.97 8.45 6.42 17.56 12.51 28.45 13.33 9.72.77 19.78-3.69 28.08-8.35 18.16-10.4 34.3-25.27 47.97-41.02 9.3-10.74 18.29-21.77 26.96-33.03 11.96-15.93 22.95-32.67 33.32-49.67 9.03-14.71 16.84-30.23 24.16-45.85 4.53-9.46 9.95-19.37 12.58-29.54 2.56-10.01 6.64-19.44 9.47-29.36 4.58-15.39 6.17-30.78 7.22-46.73.55-11.6 1.32-24.67-1.1-36.16-5.76 2.14-10.62 5.27-16.91 6.02-4.33.45-8.56 1.33-12.83 2.06 8.59-3.65 16.86-7.67 23.83-14.05 17.47-16.39 32.92-35.38 44.69-56.27 10.48-18.84 17.36-39.59 20.08-60.98 1.68-24.52.15-48.99-6.67-72.68-8.19-27.47-21.14-53.04-37.48-76.53-6.35-8.89-12.66-17.92-19.8-26.2-12.1-13.82-25.02-27.05-38.97-39.02-14.04-12.34-29.38-23.56-44.61-34.39-20.95-14.38-43.64-28.79-67.64-37.36-11.85-4.68-24.46-9.8-37.36-10.5-6.02 3.75-11.37 10.02-18.39 12.8-3.32 1.28-6.94.88-10.36.33 4.83-7.02 12.64-11.85 16.71-19.98 1.56-3.38 3.06-7.42.43-10.71-3.06-3.55-8.57-4.87-13.04-3.71-13.02 3.24-25.43 8.7-36.48 16.33-4.73 3.21-8.27 7.63-12.82 11 3.62-12.25 11.25-24.68 12.54-37.35.25-2.4.52-4.56-1.11-6.57-2.77-.25-5.3.68-7.84 1.66-5.81 2.35-11.16 6.12-16.1 9.94-6.47 5.25-12.78 10.39-18.08 16.88-2.69 2.97-4.97 6.47-7.97 9.11-2.65 1.79-6.57 1.93-9.65 2.48-8.12.81-15.67 3.12-23.49 5.31-23.7 6.96-44.94 19.71-64.56 34.45-3.3 2.72-7.18 5.05-10.02 8.25-.69 2.4.11 5.31.15 7.81.59 7.14-.52 14.35-4.87 20.21Zm283.46-77.18c2.2 2.94 6.02 4.41 9.21 6.09 8.6 4.22 16.98 8.75 25.06 13.91 4.95 2.87 9.67 6.75 15 8.8.79-1.2 1.21-2.14 1-3.61-1.29-10.52-4.3-20.59-11.75-28.43-5.61-5.62-13.54-7.16-21.2-5.89-6.27 1.06-13.32 3.98-17.32 9.13Zm153.83 409.58c-1.52 1.87-2.28 3.3-2.11 5.78.59 15.52.9 30.95-.68 46.43-1.25 8.64-2.3 17.33-3.21 26.01 11.25-3.38 22.1-9.13 32.1-15.22 27.56-16.63 50.23-41.02 66.08-68.94 6.14-10 9.71-20.83 12.97-32.02 3.89-13.27 2.84-27.8-1.48-40.83-1.77-5.3-4.48-10.57-9.14-13.88-4.14-3.23-10.64-2.83-15.34-1.21-5.33 2.17-9.8 7.13-13.65 11.29-9.36 10.67-18.61 21.43-27.68 32.35-4.96 5.94-8.32 12.84-13.06 18.94-8.28 10.49-15.64 21.52-24.8 31.3Zm-531.27 252.7c-2.76.32-6.29 1.17-8.59-.9-2.21-1.63-2.16-4.77-1.49-7.17 1.32-3.61 4.03-6.82 5.85-10.22 2.04-3.81 3.73-7.87 4.81-12.05-7.12.24-14.27 1.96-21.16 3.71-8.36 2.13-16.02 5.63-23.88 9.1-12.99 5.72-25.68 12.49-37.26 20.72-13.9 9.55-26.56 21.66-38.24 33.77-8.16 8.92-15.99 18.13-23.01 27.98-10.38 14.58-19.13 30.19-26.54 46.48-3.23 7.22-6.89 14.53-8.95 22.19 8.37-4.69 15.21-11.77 23.62-16.52 15.65-9 32.49-16.48 49.99-21.03 10.32-2.88 20.82-4.5 31.37-6.25 13.6-.62 27.58-2.4 41.24-2.13 7.02.12 13.98-.61 20.98-.93 7.47-.13 14.93-.88 22.39-1.77 10.11-1.16 20.13-4.3 29.82-6.16 2.41-.37 5.35-.35 6.35 2.35 1.35 4.01.17 8.85-1.33 12.69-4.16 10.39-10.3 19.88-19.05 27-6.41 5.58-14.04 9.01-20.84 13.94 3.9.94 7.7.95 11.67 1.2 13.39.78 27.53.97 40.75-1.59 18.94-4.23 36.85-12.22 52.91-23.09 3.95-2.35 7.97-6.52 12.92-4.31 2.16 2.18 2.84 5.48 2.26 8.43-.91 4.58-3.7 9.02-6.05 13-4.13 6.75-7.47 13.31-12.85 19.2-3 3.49-6.58 6.36-9.73 9.7 14.66.31 29.49-1.71 43.82-4.71 8.41-1.73 16.96-3.75 24.94-6.99 15.52-6.31 30.31-15 42.87-26.15 7.14-6.01 13.73-12.45 18.21-20.76 1.18-2.08 2.24-4.45 3.85-6.24 2.35-1.33 5.86.55 5.97 3.3 1.02 9.07-.98 17.12-2.73 25.88 9.85-4.86 18.24-13.43 24.51-22.35 5.94-8.3 12.03-16 16.92-25.04.76-1.48 1.44-2.94 1.82-4.56-1.1-2.41-3.26-4.46-5.15-6.26-10.82-9.86-22.09-19.22-32.86-29.13-13.86-13.34-29.01-25.4-44.56-36.7-17.7-12.55-36.7-23.45-55.52-34.22-13.59-7.41-27.06-14.91-40.25-23.03-11.04-6.77-21.53-14.34-31.89-22.1-3.39 9.19-6.87 18.28-11.68 26.85-3.78 6.65-7.22 13.09-11.88 19.13-5.69 7.36-11.14 14.73-18.51 20.5-7.99 6.22-16.23 11.81-25.84 15.24Z"/><path id="b" d="M484.65 30.12c1.63 2.01 1.36 4.17 1.11 6.57-1.29 12.67-8.92 25.1-12.54 37.35 4.55-3.37 8.09-7.79 12.82-11 11.05-7.63 23.46-13.09 36.48-16.33 4.47-1.16 9.98.16 13.04 3.71 2.63 3.29 1.13 7.33-.43 10.71-4.07 8.13-11.88 12.96-16.71 19.98 3.42.55 7.04.95 10.36-.33 7.02-2.78 12.37-9.05 18.39-12.8 12.9.7 25.51 5.82 37.36 10.5 24 8.57 46.69 22.98 67.64 37.36 15.23 10.83 30.57 22.05 44.61 34.39 13.95 11.97 26.87 25.2 38.97 39.02 7.14 8.28 13.45 17.31 19.8 26.2 16.34 23.49 29.29 49.06 37.48 76.53 6.82 23.69 8.35 48.16 6.67 72.68-2.72 21.39-9.6 42.14-20.08 60.98-11.77 20.89-27.22 39.88-44.69 56.27-6.97 6.38-15.24 10.4-23.83 14.05 4.27-.73 8.5-1.61 12.83-2.06 6.29-.75 11.15-3.88 16.91-6.02 2.42 11.49 1.65 24.56 1.1 36.16-1.05 15.95-2.64 31.34-7.22 46.73-2.83 9.92-6.91 19.35-9.47 29.36-.55-12.7.09-25.49-1.46-38.01-1.77-14.2-9.23-27.55-19.93-36.98-4.75-4.3-10.69-7.14-17.08-7.84-5-.45-10.43 1.17-15.33 2.14-11.17 2.29-22.17 4.96-33.47 6.54-23.83 3.48-47.87 6.43-71.94 7.41-11.01.95-21.94.53-33.04.59-11.16-.31-22.03.24-33.08-.81-12.57-1.18-26.25-2.7-38.79-.92-9.45 1.32-17.51 6.13-24.71 12.16-8.96 7.81-16.29 17.27-20.6 28.42-5.73 14.88-8.2 31.17-5.61 47 3.31 21.6 13.36 39.71 25.4 57.56 8.74 13.28 17.96 24.38 24.91 38.09 3.07 6.19 6.17 12.27 8.47 18.8-2.53-1.56-4.83-3.26-6.72-5.57-4.4-5.28-9.39-9.93-14.53-14.47-4.04-3.56-8.17-7.33-12.59-10.38-7.87-5.52-16.71-8.99-24.82-14.18-14.73-9.19-30.71-17.94-44.16-28.84-6.86-5.22-13.95-9.78-20.09-15.92-7.24-7.29-14.23-14.52-19.86-23.15-4.66-7.08-7.77-15.29-10.87-23.16-2.05-5.35-4.17-10.7-5.87-16.17-1.49-4.72-1.91-9.5-2.9-14.31-.56 1.06-1.11 2.13-1.63 3.21-2.76-12.42-8.27-23.95-17.14-33.16-4.02-4.3-11.02-5.46-16.61-4.72-1.47 2.61.74 5.15 2 7.34 5.77 8.32 11.07 16.34 14.25 26.07-2.09 4.98-5.26 10.99-10.63 12.99-5.24 1.78-11.4 1.41-16.86 1.18-8.97-.43-16.15-4.24-24.15-7.82-9.76-4.67-19.21-8.13-26.67-16.33-7.49-8.31-14.2-17.96-18.85-28.15-3.45-7.26-3.19-14.74-5.46-22.32 1.07-7.49 4.18-14.75 8.95-20.63 5.29-6.42 13.17-10.11 21.18-11.77 12.33-2.61 25.6-1.37 37.84 1.2 7.26 1.5 14.17 4.08 20.81 7.35 2.42 1.36 5.46-.51 8.13.58 16.09 4.52 32.71 7.39 49.3 9.39-5.18-3.66-10.79-5.88-16.56-9.01-10.6-5.68-21.61-10.69-30.94-18.06-5.91-4.4-11-9.61-16.21-14.79-10.73-10.22-22.61-21.2-29.62-34.4-6.14-10.8-10.8-22.4-13.46-34.55-3.54-15.91-6.01-32.42-6.05-48.74.21-15.85 1.82-31.59 5.83-46.96 1.12-4.04 1.52-8.13 1.74-12.3 3.01-9.66 6.78-19.11 10.41-28.55 2.79-7.31 5.97-14.43 9.67-21.33 6.3-11.58 11.54-22.9 19.44-33.58 2.11-2.81 3.11-4.49 2.68-8.17 1.1-2.5 2.48-4.76 4.5-6.61 4.52-4.27 9.73-7.7 14.19-12.06.82.56 1.65 1.08 2.5 1.58 3.96-2.53 6.48-7.3 6.36-12-.14-5.64-2.76-11-6.11-15.43-5.23-6.85-12.8-13.55-21.36-15.56-4.45-.71-7.96-2-11.93-4.05-4.86-2.52-11.52-1.28-15.99-4.06-1.42-4.37-.07-9.04-2.17-13.41 4.4-4.91 9.64-8.8 16.18-10.24 9.77-2.36 19.54-.75 28.78 2.82 8.35 3.25 14.96 9.62 20.66 16.35 5.9 7.35 11.2 15.64 14.46 24.52 1.54 4.1 2.41 8.26 4.18 12.27 4.35-5.86 5.46-13.07 4.87-20.21-.04-2.5-.84-5.41-.15-7.81 2.84-3.2 6.72-5.53 10.02-8.25 19.62-14.74 40.86-27.49 64.56-34.45 7.82-2.19 15.37-4.5 23.49-5.31 3.08-.55 7-.69 9.65-2.48 3-2.64 5.28-6.14 7.97-9.11 5.3-6.49 11.61-11.63 18.08-16.88 4.94-3.82 10.29-7.59 16.1-9.94 2.54-.98 5.07-1.91 7.84-1.66Zm141.42 109.26c6.33-.4 11.84 1.97 16.7 5.85 3.34 2.21 6.57 6.11 11.02 4.81 1.49-.19 2.15-1.78 2.32-3.11.41-4.1.35-8.16-2.85-11.18-5.31-5.16-12.56-8.64-19.74-10.27-8.25-1.68-17.35.64-21.69 8.36-1.77 2.29-1.01 7.27 2.22 7.59 4.04.01 7.93-1.95 12.02-2.05Zm-256.54 48.43c-.04 2.92.66 5.14 3.69 6.11 2.68.57 3.38-1.63 4.61-3.4 4.25-6.45 8.43-14.36 14.58-19.12 6.19-4.59 15.22-4.17 22.41-5.47 3.8-.6 3.71-5.2 2.01-7.76-3.12-4.14-8.65-6.57-13.82-6.18-12.61.97-24.53 8.46-30.03 20.01-2.7 5.16-3.75 9.96-3.45 15.81Zm285.78 12.55c-18.15 3.27-32.39 18.84-36.5 36.46-3.18 12.28-1.49 25.25 3.58 36.77 4.2 9.85 12.31 18.09 21.28 23.74 14.36 8.87 33.62 8.63 47.38-1.27 10.7-7.62 18.45-19.19 21.03-32.11 2.77-13.77.03-28.66-7.49-40.54-5.68-9.19-14.36-16.6-24.39-20.63-7.9-3.18-16.53-3.66-24.89-2.42Zm-248.88 27.09c-12.9 1.64-24.95 8.89-32.68 19.31-12.26 16.21-13.08 40.02-2.98 57.48 5.61 10.12 14.52 18.1 24.92 23.08 9.01 4.31 19.79 4.79 29.46 2.82 21.31-5.12 36.48-25.49 37.09-47.12 1.28-21.49-11.57-43.26-31.47-51.8-7.53-3.22-16.18-4.93-24.34-3.77Zm154.51 99.88c.47 7.03.73 15.45-2.84 21.76-2.3 4.29-4.9 9.28-9.34 11.66-5.43 2.92-12.17 4.04-18.22 4.77-8.6 1.24-17.78-.46-25.36-4.7-4.86-2.82-7.57-7.41-9.4-12.59-1.32-2.95-2.06-6.57-5.88-6.98-3.37-.02-4.99 3.81-4.93 6.71 0 4.99-.54 11.17 2.75 15.3 2.55 3.66 6.35 5.55 9.4 8.58 1.11 4.37.51 9.09 1.52 13.54 3.14 15.66 8.17 31.11 18.15 43.82 7.9 10.17 19.26 18.06 32.18 19.93 9.82 1.38 19.45-1.96 27.11-8.04a80.743 80.743 0 0 0 23.95-32.06c3.09-7.58 6.34-15.56 7.52-23.66.69-3.92.72-8.08 1.81-11.9 5.17-2.57 10.53-4.33 15.21-7.89 6.78-4.77 10.55-13.33 9.48-21.54-.44-2.56-1.52-6.02-4.27-6.94-1.99-.47-4.01 1.06-4.99 2.69-2.16 3.62-3.14 7.87-5.56 11.46-3.83 5.76-10.32 9.36-17.21 9.82-7.08.52-15.25.01-21.6-3.5-4.05-2.28-6.93-5.88-7.25-10.65-.37-6.7.06-14.46.76-21.14 2.56-2.13 5.94-3.29 8.75-5.1 11.82-7.14 19.72-18.73 24.57-31.45.55-1.64 1.42-4.12.44-5.72-4.85-2.89-10.66-4.38-15.98-6.21-8.33-2.81-16.96-3.6-25.71-3.52-12.65-.38-25.54 3.12-37.07 8.15-4.18 2.03-9.94 5.25-10.59 10.35-.46 4.13.58 8.56 1.94 12.44 3.08 7.66 10.21 13.81 17.33 17.66 7.34 3.9 15.16 4.73 23.33 4.95Zm163.49-33.84c-15.66 2.31-30.23 10.44-40.06 22.9-5.45 6.79-6.83 16.21-6.52 24.66.24 6.98 3.71 12.8 8.26 17.85 4.12 4.54 9.33 7.77 15.01 9.99 10.07 3.82 21.05 5.05 31.64 2.82 15.02-2.87 28.82-10.55 38.22-22.73 4.23-5.51 7.01-11.95 7.04-18.98.28-8.61-4.38-16.82-10.02-23.01-5.19-5.52-12.27-10.14-19.46-12.55-7.68-2.25-16.24-2.01-24.11-.95ZM348.39 328.5c-13.02 2.19-25.36 6.05-36.35 13.54-6.84 4.81-12.5 11.49-14.18 19.86-2.33 10.76.29 22.2 8.09 30.15 10.73 10.82 25.72 17.7 40.61 20.39 10.86 2.12 22.44.97 33.07-1.81 12.62-4.07 24.26-12.16 32.04-22.96 5.37-7.45 6.56-16.71 5.29-25.63-.86-5.59-4.46-10.69-8.28-14.71-9.85-10.03-23.05-16.77-36.92-18.95-7.69-.9-15.7-.96-23.37.12Z"/><path id="c" d="M623 59.91c7.66-1.27 15.59.27 21.2 5.89 7.45 7.84 10.46 17.91 11.75 28.43.21 1.47-.21 2.41-1 3.61-5.33-2.05-10.05-5.93-15-8.8-8.08-5.16-16.46-9.69-25.06-13.91-3.19-1.68-7.01-3.15-9.21-6.09 4-5.15 11.05-8.07 17.32-9.13Z"/><path id="d" d="M237.96 100.5c2.1 4.37.75 9.04 2.17 13.41 4.47 2.78 11.13 1.54 15.99 4.06 3.97 2.05 7.48 3.34 11.93 4.05-2.76-.44-5.52-.39-8.28-.07 3.77 3.49 8.13 5.8 11.45 9.85 5.02 6.12 9.78 13.18 12.18 20.78 1.15 3.6 2.17 7.24 3.26 10.85-4.46 4.36-9.67 7.79-14.19 12.06-2.02 1.85-3.4 4.11-4.5 6.61-3.4-2.13-6.79-4.16-10.6-5.47-7.83-2.63-14.89-7.48-20.42-13.58-7.36-8.27-11.17-19.04-11.48-30.05-.04-6.93 2.21-13.58 4.52-20.04 1.72-4.72 4.48-8.87 7.97-12.46Z"/><path id="e" d="M259.77 121.95c2.76-.32 5.52-.37 8.28.07 8.56 2.01 16.13 8.71 21.36 15.56 3.35 4.43 5.97 9.79 6.11 15.43.12 4.7-2.4 9.47-6.36 12-.85-.5-1.68-1.02-2.5-1.58-1.09-3.61-2.11-7.25-3.26-10.85-2.4-7.6-7.16-14.66-12.18-20.78-3.32-4.05-7.68-6.36-11.45-9.85Z"/><path id="f" d="M633.52 125.48c7.18 1.63 14.43 5.11 19.74 10.27 3.2 3.02 3.26 7.08 2.85 11.18-.17 1.33-.83 2.92-2.32 3.11-4.45 1.3-7.68-2.6-11.02-4.81-4.86-3.88-10.37-6.25-16.7-5.85-4.09.1-7.98 2.06-12.02 2.05-3.23-.32-3.99-5.3-2.22-7.59 4.34-7.72 13.44-10.04 21.69-8.36Z"/><path id="g" d="M403.01 151.99c5.17-.39 10.7 2.04 13.82 6.18 1.7 2.56 1.79 7.16-2.01 7.76-7.19 1.3-16.22.88-22.41 5.47-6.15 4.76-10.33 12.67-14.58 19.12-4.04.78-5.33-.23-8.3-2.71-.3-5.85.75-10.65 3.45-15.81 5.5-11.55 17.42-19.04 30.03-20.01Z"/><path id="h" d="M369.53 187.81c2.97 2.48 4.26 3.49 8.3 2.71-1.23 1.77-1.93 3.97-4.61 3.4-3.03-.97-3.73-3.19-3.69-6.11Z"/><path id="i" d="M655.31 200.36c8.36-1.24 16.99-.76 24.89 2.42 10.03 4.03 18.71 11.44 24.39 20.63 7.52 11.88 10.26 26.77 7.49 40.54-2.58 12.92-10.33 24.49-21.03 32.11-13.76 9.9-33.02 10.14-47.38 1.27-8.97-5.65-17.08-13.89-21.28-23.74-5.07-11.52-6.76-24.49-3.58-36.77 4.11-17.62 18.35-33.19 36.5-36.46Zm-4.79 19.29c-5.94 1.91-11.08 7.89-10.57 14.36-.17 7.74 7.21 14.96 15.04 14.07 8.98-.48 15.14-10.13 12.41-18.59-2.14-7.2-9.27-12.52-16.88-9.84Zm32.93 43.7c-4.13 2.17-5.01 8.53-1.21 11.4 2.94 2.67 7.99 1.83 9.79-1.74 2.19-3.49.36-8.29-3.36-9.8-1.66-.42-3.6-.49-5.22.14Z"/><path id="j" d="M650.52 219.65c7.61-2.68 14.74 2.64 16.88 9.84 2.73 8.46-3.43 18.11-12.41 18.59-7.83.89-15.21-6.33-15.04-14.07-.51-6.47 4.63-12.45 10.57-14.36Z"/><path id="k" d="M406.43 227.45c8.16-1.16 16.81.55 24.34 3.77 19.9 8.54 32.75 30.31 31.47 51.8-.61 21.63-15.78 42-37.09 47.12-9.67 1.97-20.45 1.49-29.46-2.82-10.4-4.98-19.31-12.96-24.92-23.08-10.1-17.46-9.28-41.27 2.98-57.48 7.73-10.42 19.78-17.67 32.68-19.31Zm-8.91 19.16c-7.37 2.1-12.39 9.76-10.67 17.37 1.4 7.93 10.39 14.29 18.23 11.14 6.32-2.04 10.55-8.48 9.95-15.09-.38-8.61-8.99-15.78-17.51-13.42Zm34.91 41.74c-4.43 1.45-6.75 6.67-4.6 10.87 1.63 4.17 7.22 6.3 11 3.58 4.17-2.41 4.81-8.82 1.51-12.19-2-2.25-5.01-3.24-7.91-2.26Z"/><path id="l" d="M397.52 246.61c8.52-2.36 17.13 4.81 17.51 13.42.6 6.61-3.63 13.05-9.95 15.09-7.84 3.15-16.83-3.21-18.23-11.14-1.72-7.61 3.3-15.27 10.67-17.37Z"/><path id="m" d="M683.45 263.35c1.62-.63 3.56-.56 5.22-.14 3.72 1.51 5.55 6.31 3.36 9.8-1.8 3.57-6.85 4.41-9.79 1.74-3.8-2.87-2.92-9.23 1.21-11.4Z"/><path id="n" d="M225.77 273.73c-.22 4.17-.62 8.26-1.74 12.3-4.01 15.37-5.62 31.11-5.83 46.96.04 16.32 2.51 32.83 6.05 48.74 2.66 12.15 7.32 23.75 13.46 34.55 7.01 13.2 18.89 24.18 29.62 34.4 5.21 5.18 10.3 10.39 16.21 14.79 9.33 7.37 20.34 12.38 30.94 18.06 5.77 3.13 11.38 5.35 16.56 9.01-16.59-2-33.21-4.87-49.3-9.39-2.67-1.09-5.71.78-8.13-.58-.53-1.11-.84-2.53-1.83-3.3-5.06-4.35-11.06-7.9-16.81-11.25-9.67-5.81-17.08-14.14-24.41-22.55-4.86-5.58-8.43-12.03-11.14-18.89-7.79-20.04-10.6-41.15-10.21-62.57.4-12.87 1.13-25.66 3.42-38.35 3.18-17.35 6.85-35.42 13.14-51.93Z"/><path id="o" d="M566 273.78c8.75-.08 17.38.71 25.71 3.52 5.32 1.83 11.13 3.32 15.98 6.21.98 1.6.11 4.08-.44 5.72-4.85 12.72-12.75 24.31-24.57 31.45-2.81 1.81-6.19 2.97-8.75 5.1-.7 6.68-1.13 14.44-.76 21.14.32 4.77 3.2 8.37 7.25 10.65 6.35 3.51 14.52 4.02 21.6 3.5 6.89-.46 13.38-4.06 17.21-9.82 2.42-3.59 3.4-7.84 5.56-11.46.98-1.63 3-3.16 4.99-2.69 2.75.92 3.83 4.38 4.27 6.94 1.07 8.21-2.7 16.77-9.48 21.54-4.68 3.56-10.04 5.32-15.21 7.89-1.09 3.82-1.12 7.98-1.81 11.9-1.18 8.1-4.43 16.08-7.52 23.66a80.743 80.743 0 0 1-23.95 32.06c-7.66 6.08-17.29 9.42-27.11 8.04-12.92-1.87-24.28-9.76-32.18-19.93-9.98-12.71-15.01-28.16-18.15-43.82-1.01-4.45-.41-9.17-1.52-13.54-3.05-3.03-6.85-4.92-9.4-8.58-3.29-4.13-2.75-10.31-2.75-15.3-.06-2.9 1.56-6.73 4.93-6.71 3.82.41 4.56 4.03 5.88 6.98 1.83 5.18 4.54 9.77 9.4 12.59 7.58 4.24 16.76 5.94 25.36 4.7 6.05-.73 12.79-1.85 18.22-4.77 4.44-2.38 7.04-7.37 9.34-11.66 3.57-6.31 3.31-14.73 2.84-21.76-8.17-.22-15.99-1.05-23.33-4.95-7.12-3.85-14.25-10-17.33-17.66-1.36-3.88-2.4-8.31-1.94-12.44.65-5.1 6.41-8.32 10.59-10.35 11.53-5.03 24.42-8.53 37.07-8.15Zm-7.58 13.66c-7.03.92-14.32 2.28-20.84 5.15-1.89.88-4.7 2.44-5.11 4.68-.09 3.29 1.99 6.75 4.12 9.14 3.89 4.22 9.89 5.29 15.36 5.56 9.16.32 19.06-.71 27.46-4.55 5.57-2.5 9.6-7.33 10.79-13.34-.95-2.6-4.33-3.76-6.72-4.58-8.07-2.4-16.71-3.06-25.06-2.06Zm-46.06 89.88c-1.78 9.24 2.06 18.84 5.1 27.4 1.36 6.09 5.03 10.31 8.67 15.16 5.14 6.71 12.74 12.99 21.16 14.77 5.38.97 11.66.91 16.56-1.79 4.84-2.47 8.34-6.12 11.9-10.11 2.66-3.01 5.32-5.67 7.42-9.12 4.86-7.2 7.91-15.74 10.46-23.99 1.1-4.54 2.18-10.75.05-15.08-6.36-1.02-12.45-1.02-18.45-3.79-3.61-1.32-7.31-4.46-11.1-4.81-4.28 1.38-8.02 4.28-12.19 6.01-8.33 3.88-16.86 4.46-25.91 4.77-4.47.15-9.28-.3-13.67.58Z"/><path id="p" d="M558.42 287.44c8.35-1 16.99-.34 25.06 2.06 2.39.82 5.77 1.98 6.72 4.58-1.19 6.01-5.22 10.84-10.79 13.34-8.4 3.84-18.3 4.87-27.46 4.55-5.47-.27-11.47-1.34-15.36-5.56-2.13-2.39-4.21-5.85-4.12-9.14.41-2.24 3.22-3.8 5.11-4.68 6.52-2.87 13.81-4.23 20.84-5.15Z"/><path id="q" d="M432.43 288.35c2.9-.98 5.91.01 7.91 2.26 3.3 3.37 2.66 9.78-1.51 12.19-3.78 2.72-9.37.59-11-3.58-2.15-4.2.17-9.42 4.6-10.87Z"/><path id="r" d="M724.43 293.49c7.87-1.06 16.43-1.3 24.11.95 7.19 2.41 14.27 7.03 19.46 12.55 5.64 6.19 10.3 14.4 10.02 23.01-.03 7.03-2.81 13.47-7.04 18.98-9.4 12.18-23.2 19.86-38.22 22.73-10.59 2.23-21.57 1-31.64-2.82-5.68-2.22-10.89-5.45-15.01-9.99-4.55-5.05-8.02-10.87-8.26-17.85-.31-8.45 1.07-17.87 6.52-24.66 9.83-12.46 24.4-20.59 40.06-22.9Z"/><path id="s" d="M348.39 328.5c7.67-1.08 15.68-1.02 23.37-.12 13.87 2.18 27.07 8.92 36.92 18.95 3.82 4.02 7.42 9.12 8.28 14.71 1.27 8.92.08 18.18-5.29 25.63-7.78 10.8-19.42 18.89-32.04 22.96-10.63 2.78-22.21 3.93-33.07 1.81-14.89-2.69-29.88-9.57-40.61-20.39-7.8-7.95-10.42-19.39-8.09-30.15 1.68-8.37 7.34-15.05 14.18-19.86 10.99-7.49 23.33-11.35 36.35-13.54Z"/><path id="t" d="M564.13 365.96c3.79.35 7.49 3.49 11.1 4.81 6 2.77 12.09 2.77 18.45 3.79 2.13 4.33 1.05 10.54-.05 15.08-2.55 8.25-5.6 16.79-10.46 23.99-3.11-4.36-5.48-8.68-9.34-12.46-4.97-4.85-11.07-9.11-17.73-11.26-8.88-2.7-18.52-1.03-26.32 3.86-4.89 2.88-8.46 6.89-12.32 10.95-3.04-8.56-6.88-18.16-5.1-27.4 4.39-.88 9.2-.43 13.67-.58 9.05-.31 17.58-.89 25.91-4.77 4.17-1.73 7.91-4.63 12.19-6.01Z"/><path id="u" d="M854.04 385.95c4.66 3.31 7.37 8.58 9.14 13.88 4.32 13.03 5.37 27.56 1.48 40.83-3.26 11.19-6.83 22.02-12.97 32.02-15.85 27.92-38.52 52.31-66.08 68.94-10 6.09-20.85 11.84-32.1 15.22.91-8.68 1.96-17.37 3.21-26.01.22 1.43.47 2.85.69 4.28.44-7.43 1.36-14.69 1.3-22.11-.03-4.67 0-9.33.02-14 .08-6.98-.61-13.45.78-20.38 9.16-9.78 16.52-20.81 24.8-31.3 4.74-6.1 8.1-13 13.06-18.94 9.07-10.92 18.32-21.68 27.68-32.35 3.85-4.16 8.32-9.12 13.65-11.29 4.7-1.62 11.2-2.02 15.34 1.21Z"/><path id="v" d="M556.1 389.91c6.66 2.15 12.76 6.41 17.73 11.26 3.86 3.78 6.23 8.1 9.34 12.46-2.1 3.45-4.76 6.11-7.42 9.12-3.56 3.99-7.06 7.64-11.9 10.11-4.9 2.7-11.18 2.76-16.56 1.79-8.42-1.78-16.02-8.06-21.16-14.77-3.64-4.85-7.31-9.07-8.67-15.16 3.86-4.06 7.43-8.07 12.32-10.95 7.8-4.89 17.44-6.56 26.32-3.86Z"/><path id="w" d="M759.51 478.62c-1.39 6.93-.7 13.4-.78 20.38-.02 4.67-.05 9.33-.02 14 .06 7.42-.86 14.68-1.3 22.11-.22-1.43-.47-2.85-.69-4.28 1.58-15.48 1.27-30.91.68-46.43-.17-2.48.59-3.91 2.11-5.78Z"/><path id="x" d="M184.83 506.42c2.27 7.58 2.01 15.06 5.46 22.32 4.65 10.19 11.36 19.84 18.85 28.15 7.46 8.2 16.91 11.66 26.67 16.33 8 3.58 15.18 7.39 24.15 7.82 5.46.23 11.62.6 16.86-1.18 5.37-2 8.54-8.01 10.63-12.99 2.99 9.31 4.33 18.98 2.08 28.62-2.39 11.25-8.46 21.49-18.12 27.92-7.01 4.37-15.13 7.06-23.37 7.68-10.51.93-20.99.4-31.03-3.09-7.34-2.42-14.92-6.05-19.18-12.82-2.34-3.77-3.52-9.09-.51-12.85 2.65-3.34 7.73-3.94 11.69-3.85 5.5.09 10.57 2.77 15.97 2.81 1.96-.26 4.8-1.09 5.28-3.31-1.88-4.92-5.77-9.19-8.74-13.5-6.84-9.61-14.93-18.13-20.88-28.13-4.27-6.97-8.45-13.9-11.46-21.53-3.58-9.32-6.67-18.3-4.35-28.4Z"/><path id="y" d="M686.78 517.3c6.39.7 12.33 3.54 17.08 7.84 10.7 9.43 18.16 22.78 19.93 36.98 1.55 12.52.91 25.31 1.46 38.01-2.63 10.17-8.05 20.08-12.58 29.54-7.32 15.62-15.13 31.14-24.16 45.85-10.37 17-21.36 33.74-33.32 49.67a741.935 741.935 0 0 1-26.96 33.03c-13.67 15.75-29.81 30.62-47.97 41.02-8.3 4.66-18.36 9.12-28.08 8.35-10.89-.82-20-6.91-28.45-13.33-10.13-8.1-19.66-17-29.03-25.97-6.28-5.86-13.01-11.63-18.71-18.07-1.42-5.74-4.18-10.8-7-15.94-2.3-6.53-5.4-12.61-8.47-18.8-6.95-13.71-16.17-24.81-24.91-38.09-12.04-17.85-22.09-35.96-25.4-57.56-2.59-15.83-.12-32.12 5.61-47 4.31-11.15 11.64-20.61 20.6-28.42 7.2-6.03 15.26-10.84 24.71-12.16 12.54-1.78 26.22-.26 38.79.92 11.05 1.05 21.92.5 33.08.81 11.1-.06 22.03.36 33.04-.59 24.07-.98 48.11-3.93 71.94-7.41 11.3-1.58 22.3-4.25 33.47-6.54 4.9-.97 10.33-2.59 15.33-2.14Z"/><path id="z" d="M306.58 568.13c.99 4.81 1.41 9.59 2.9 14.31 1.7 5.47 3.82 10.82 5.87 16.17 3.1 7.87 6.21 16.08 10.87 23.16 5.63 8.63 12.62 15.86 19.86 23.15 6.14 6.14 13.23 10.7 20.09 15.92 13.45 10.9 29.43 19.65 44.16 28.84 8.11 5.19 16.95 8.66 24.82 14.18 4.42 3.05 8.55 6.82 12.59 10.38 5.14 4.54 10.13 9.19 14.53 14.47 1.89 2.31 4.19 4.01 6.72 5.57 2.82 5.14 5.58 10.2 7 15.94-6.38-4.63-12.22-9.95-18.55-14.66-13.19-10.31-26.72-20.16-40.83-29.18-10.65-7.16-21.52-13.91-32.6-20.39-28.51-16.42-58.97-32.86-85.31-52.69-2.32-1.81-5.14-3.82-6.6-6.42.74-2.79 2.45-5.42 3.73-8 7.31-15.02 12-30.7 9.12-47.54.52-1.08 1.07-2.15 1.63-3.21Z"/><path id="A" d="M296.15 649.6c10.36 7.76 20.85 15.33 31.89 22.1.28 2.61.06 4.64-1.28 6.97-7.32 13.35-14.86 26.94-23.89 39.23-4.64 6.39-10.15 11.7-15.67 17.3-5.63 5.71-11.73 11.03-18.24 15.71-2.06 1.54-4.48 3.15-5.99 5.25-.06.87-.05 1.76.03 2.64 6.63 1.31 14.13.08 20.73-1.05 7.34-1.35 14.63-2.15 21.83-4.18 3.43-.83 7.6-2.19 11.11-1.41 2.13 1.63 2.08 4.38 2.13 6.82-.16 8.35-3.12 17.1-5.82 24.95-3.68 10.47-7.96 21.57-14.33 30.71-2.41 3.75-5.06 6.73-4.79 11.49 5.22-.29 9.63-2.85 14.59-4.63 5.71-2.11 11.32-4.38 16.59-7.44 13.04-7.54 26-13.04 38.15-21.86 16.08-10.65 32.29-22.41 44.14-37.86 4.37-6.02 8.69-11.52 11.53-18.42 1.2-2.95 2.53-4.9 4.95-6.97 15.55 11.3 30.7 23.36 44.56 36.7 10.77 9.91 22.04 19.27 32.86 29.13 1.89 1.8 4.05 3.85 5.15 6.26-.38 1.62-1.06 3.08-1.82 4.56-4.89 9.04-10.98 16.74-16.92 25.04-6.27 8.92-14.66 17.49-24.51 22.35 1.75-8.76 3.75-16.81 2.73-25.88-.11-2.75-3.62-4.63-5.97-3.3-1.61 1.79-2.67 4.16-3.85 6.24-4.48 8.31-11.07 14.75-18.21 20.76-12.56 11.15-27.35 19.84-42.87 26.15-7.98 3.24-16.53 5.26-24.94 6.99-14.33 3-29.16 5.02-43.82 4.71 3.15-3.34 6.73-6.21 9.73-9.7 5.38-5.89 8.72-12.45 12.85-19.2 2.35-3.98 5.14-8.42 6.05-13 .58-2.95-.1-6.25-2.26-8.43-4.95-2.21-8.97 1.96-12.92 4.31-16.06 10.87-33.97 18.86-52.91 23.09-13.22 2.56-27.36 2.37-40.75 1.59-3.97-.25-7.77-.26-11.67-1.2 6.8-4.93 14.43-8.36 20.84-13.94 8.75-7.12 14.89-16.61 19.05-27 1.5-3.84 2.68-8.68 1.33-12.69-1-2.7-3.94-2.72-6.35-2.35-9.69 1.86-19.71 5-29.82 6.16-7.46.89-14.92 1.64-22.39 1.77-7 .32-13.96 1.05-20.98.93-13.66-.27-27.64 1.51-41.24 2.13 4.73-4.16 10.41-6.24 15.63-9.61 5.72-3.61 11.17-7.6 17.08-10.91 4.8-2.93 9.79-5.57 14.54-8.58 6.65-4.56 12.63-10.99 18.58-16.38 5.04-4.87 11.43-9.5 14.95-15.62-1.06-1.44-1.64-2.24-3.55-2.28-9.94-.85-20.13.5-30.01.28 3.09-4.34 7.44-7.97 11.24-11.81 5.05-4.93 9.93-10.03 15.02-14.9 9.61-3.43 17.85-9.02 25.84-15.24 7.37-5.77 12.82-13.14 18.51-20.5 4.66-6.04 8.1-12.48 11.88-19.13 4.81-8.57 8.29-17.66 11.68-26.85Z"/><path id="B" d="M328.04 671.7c13.19 8.12 26.66 15.62 40.25 23.03 18.82 10.77 37.82 21.67 55.52 34.22-2.42 2.07-3.75 4.02-4.95 6.97-2.84 6.9-7.16 12.4-11.53 18.42-11.85 15.45-28.06 27.21-44.14 37.86-12.15 8.82-25.11 14.32-38.15 21.86-5.27 3.06-10.88 5.33-16.59 7.44-4.96 1.78-9.37 4.34-14.59 4.63-.27-4.76 2.38-7.74 4.79-11.49 6.37-9.14 10.65-20.24 14.33-30.71 2.7-7.85 5.66-16.6 5.82-24.95-.05-2.44 0-5.19-2.13-6.82-3.51-.78-7.68.58-11.11 1.41-7.2 2.03-14.49 2.83-21.83 4.18-6.6 1.13-14.1 2.36-20.73 1.05-.08-.88-.09-1.77-.03-2.64 1.51-2.1 3.93-3.71 5.99-5.25 6.51-4.68 12.61-10 18.24-15.71 5.52-5.6 11.03-10.91 15.67-17.3 9.03-12.29 16.57-25.88 23.89-39.23 1.34-2.33 1.56-4.36 1.28-6.97Z"/><path id="C" d="M228.82 700.98c-1.08 4.18-2.77 8.24-4.81 12.05-1.82 3.4-4.53 6.61-5.85 10.22-.67 2.4-.72 5.54 1.49 7.17 2.3 2.07 5.83 1.22 8.59.9-5.09 4.87-9.97 9.97-15.02 14.9-3.8 3.84-8.15 7.47-11.24 11.81 9.88.22 20.07-1.13 30.01-.28 1.91.04 2.49.84 3.55 2.28-3.52 6.12-9.91 10.75-14.95 15.62-5.95 5.39-11.93 11.82-18.58 16.38-4.75 3.01-9.74 5.65-14.54 8.58-5.91 3.31-11.36 7.3-17.08 10.91-5.22 3.37-10.9 5.45-15.63 9.61-10.55 1.75-21.05 3.37-31.37 6.25-17.5 4.55-34.34 12.03-49.99 21.03-8.41 4.75-15.25 11.83-23.62 16.52 2.06-7.66 5.72-14.97 8.95-22.19 7.41-16.29 16.16-31.9 26.54-46.48 7.02-9.85 14.85-19.06 23.01-27.98 11.68-12.11 24.34-24.22 38.24-33.77 11.58-8.23 24.27-15 37.26-20.72 7.86-3.47 15.52-6.97 23.88-9.1 6.89-1.75 14.04-3.47 21.16-3.71Z"/></defs><g stroke-width="10pt"><use xlink:href="#a" stroke="#322117"/><use xlink:href="#b" stroke="#e9a458"/><use xlink:href="#c" stroke="#c67935"/><use xlink:href="#d" stroke="#c67935"/><use xlink:href="#e" stroke="#322117"/><use xlink:href="#f" stroke="#322117"/><use xlink:href="#g" stroke="#322117"/><use xlink:href="#h" stroke="#c67935"/><use xlink:href="#i" stroke="#322117"/><use xlink:href="#j" stroke="#fff"/><use xlink:href="#k" stroke="#322117"/><use xlink:href="#l" stroke="#fff"/><use xlink:href="#m" stroke="#fff"/><use xlink:href="#n" stroke="#c67935"/><use xlink:href="#o" stroke="#322117"/><use xlink:href="#p" stroke="#c67935"/><use xlink:href="#q" stroke="#fff"/><use xlink:href="#r" stroke="#fea08f"/><use xlink:href="#s" stroke="#fea08f"/><use xlink:href="#t" stroke="#7d2329"/><use xlink:href="#u" stroke="#c67935"/><use xlink:href="#v" stroke="#ff6e73"/><use xlink:href="#w" stroke="#ff9b22"/><use xlink:href="#x" stroke="#c67935"/><use xlink:href="#y" stroke="#ffe5b6"/><use xlink:href="#z" stroke="#c67935"/><use xlink:href="#A" stroke="#fc7920"/><use xlink:href="#B" stroke="#ff9b22"/><use xlink:href="#C" stroke="#ff9b22"/></g><use xlink:href="#a" fill="#322117"/><use xlink:href="#b" fill="#e9a458"/><use xlink:href="#c" fill="#c67935"/><use xlink:href="#d" fill="#c67935"/><use xlink:href="#e" fill="#322117"/><use xlink:href="#f" fill="#322117"/><use xlink:href="#g" fill="#322117"/><use xlink:href="#h" fill="#c67935"/><use xlink:href="#i" fill="#322117"/><use xlink:href="#j" fill="#fff"/><use xlink:href="#k" fill="#322117"/><use xlink:href="#l" fill="#fff"/><use xlink:href="#m" fill="#fff"/><use xlink:href="#n" fill="#c67935"/><use xlink:href="#o" fill="#322117"/><use xlink:href="#p" fill="#c67935"/><use xlink:href="#q" fill="#fff"/><use xlink:href="#r" fill="#fea08f"/><use xlink:href="#s" fill="#fea08f"/><use xlink:href="#t" fill="#7d2329"/><use xlink:href="#u" fill="#c67935"/><use xlink:href="#v" fill="#ff6e73"/><use xlink:href="#w" fill="#ff9b22"/><use xlink:href="#x" fill="#c67935"/><use xlink:href="#y" fill="#ffe5b6"/><use xlink:href="#z" fill="#c67935"/><use xlink:href="#A" fill="#fc7920"/><use xlink:href="#B" fill="#ff9b22"/><use xlink:href="#C" fill="#ff9b22"/></svg>